<mxfile host="app.diagrams.net" modified="2023-06-09T07:52:42.804Z" agent="Mozilla/5.0 (X11; Linux x86_64) AppleWebKit/537.36 (KHTML, like Gecko) Chrome/112.0.0.0 Safari/537.36" version="21.3.5" etag="f9BqipvcKDm7-TiZjvUh" type="github">
  <diagram name="第 1 页" id="HYZAaRW8ASHUZ5Ly0_5t">
    <mxGraphModel>
      <root>
        <mxCell id="0" />
        <mxCell id="1" parent="0" />
      </root>
    </mxGraphModel>
  </diagram>
</mxfile>
